<?xml version="1.0" encoding="UTF-8"?>
<svg id="Layer_2" data-name="Layer 2" xmlns="http://www.w3.org/2000/svg" viewBox="0 0 653.46 156.43">
  <g id="Layer_2-2" data-name="Layer 2">
    <path d="M583.25,155.29h20.73V41.6h-20.73v113.68h0ZM388.03,39.76c-12.09,0-22.49,4.49-30.34,13.02V0h-20.73v155.29h20.73v-60.66c0-30.8,21.22-34.13,30.34-34.13,16.33,0,27.3,13.28,27.3,33.04v61.7h20.73v-61.7c0-31.16-20.2-53.78-48.03-53.78ZM629.08,41.69c-6.08,0-11.58,3.36-14.37,8.76l-5.55,10.77h32.84l11.46-19.52h-24.38ZM296.41,17.64V0h-20.73v16.08c0,13.94-6.64,23.68-16.14,23.68h-1.18v20.73h17.13v47.15c0,27.58,18.81,47.6,44.73,47.6h.99v-20.73h-.99c-14.13,0-23.99-11.05-23.99-26.86v-47.15h24.98v-20.73h-36.61c7.1-3.45,11.82-9.94,11.82-22.12h-.01ZM509.58,40.45c-31.97,0-57.99,26.01-57.99,57.99s26.01,57.99,57.99,57.99c20.59,0,39.81-11.08,50.17-28.92l1.29-2.22h-25.4l-.44.45c-6.87,7.15-15.97,11.08-25.62,11.08-17.74,0-32.56-13.41-35.8-31.09h93.35l.14-1.33c.2-1.96.3-3.96.3-5.95,0-31.97-26.01-57.99-57.98-57.99h0ZM474.38,88.44c4.19-16.33,18.38-28.37,35.2-28.37s31.01,12.05,35.2,28.37h-70.4ZM201.66,40.45c-31.97,0-57.99,26.01-57.99,57.99s26.01,57.99,57.99,57.99c20.59,0,39.81-11.08,50.17-28.92l1.29-2.22h-25.4l-.44.45c-6.87,7.15-15.97,11.08-25.62,11.08-17.74,0-32.56-13.41-35.8-31.09h93.35l.14-1.33c.2-1.96.3-3.96.3-5.95,0-31.97-26.01-57.99-57.98-57.99h0ZM166.46,88.44c4.19-16.33,18.38-28.37,35.2-28.37s31.01,12.05,35.2,28.37h-70.4,0ZM49.5,20.8L0,155.36h22.24l7.86-21.36h74.27l-.33-1.24c-3.62-13.67-11.46-19.49-26.21-19.49h-40.11L71.31,21.97l49.07,133.39h22.74L93.62,20.8h-44.12Z"/>
  </g>
</svg>