<?xml version="1.0" encoding="UTF-8"?>
<svg id="AETHER" xmlns="http://www.w3.org/2000/svg" version="1.1" viewBox="0 0 653.5 156.4">
  <!-- Generator: Adobe Illustrator 30.2.1, SVG Export Plug-In . SVG Version: 2.1.1 Build 1)  -->
  <g id="R">
    <polygon points="583.2 155.3 604 155.3 604 41.6 583.2 41.6 583.2 155.3 583.2 155.3 583.2 155.3"/>
    <path d="M629.1,41.7c-6.1,0-11.6,3.4-14.4,8.8l-5.5,10.8h32.8l11.5-19.5h-24.4Z"/>
  </g>
  <path id="E2" d="M509.6,40.5h0c-32,0-58,26-58,58s26,58,58,58,39.8-11.1,50.2-28.9l1.3-2.2h-25.4l-.4.5c-6.9,7.2-16,11.1-25.6,11.1-17.7,0-32.6-13.4-35.8-31.1h93.3v-1.3c.3-2,.4-4,.4-6,0-32-26-58-58-58ZM474.4,88.4h0c4.2-16.3,18.4-28.4,35.2-28.4s31,12,35.2,28.4h-70.4Z"/>
  <path id="H" d="M388,39.8c-12.1,0-22.5,4.5-30.3,13V0h-20.7v155.3h20.7v-60.7c0-30.8,21.2-34.1,30.3-34.1,16.3,0,27.3,13.3,27.3,33v61.7h20.7v-61.7c0-31.2-20.2-53.8-48-53.8Z"/>
  <path id="T" d="M296.4,17.6V0h-20.7v16.1c0,13.9-6.6,23.7-16.1,23.7h-1.2v20.7h17.1v47.1c0,27.6,18.8,47.6,44.7,47.6h1v-20.7h-1c-14.1,0-24-11.1-24-26.9v-47.2h25v-20.7h-36.6c7.1-3.5,11.8-9.9,11.8-22.1h0Z"/>
  <path id="E" d="M201.7,40.5h0c-32,0-58,26-58,58s26,58,58,58,39.8-11.1,50.2-28.9l1.3-2.2h-25.4l-.4.5c-6.9,7.2-16,11.1-25.6,11.1-17.7,0-32.6-13.4-35.8-31.1h93.4v-1.3c.3-2,.4-4,.4-6,0-32-26-58-58-58ZM166.5,88.4c4.2-16.3,18.4-28.4,35.2-28.4s31,12,35.2,28.4h-70.4Z"/>
  <path id="A" d="M49.5,20.8L0,155.4h22.2l7.9-21.4h74.3l-.3-1.2c-3.6-13.7-11.5-19.5-26.2-19.5h-40.1L71.3,22l49.1,133.4h22.7L93.6,20.8h-44.1Z"/>
</svg>